
<svg version="1.0" xmlns="http://www.w3.org/2000/svg"
 width="50.000000pt" height="34.482759pt" viewBox="0 0 50.000000 34.482759"
 preserveAspectRatio="xMidYMid meet">
<g transform="translate(0.000000,34.482759) scale(0.034483,-0.034483)"
fill="#000000" stroke="none">
<path d="M527 813 c-29 -12 -42 -27 -59 -64 -22 -46 -24 -48 -68 -51 -37 -3
-45 -6 -45 -23 0 -17 8 -21 50 -25 l50 -5 -32 -23 c-55 -39 -34 -79 25 -48 22
11 32 12 41 3 16 -16 14 -32 -10 -53 -55 -50 -64 -151 -19 -213 32 -45 122
-85 203 -89 l68 -4 -3 -31 c-3 -29 -7 -32 -48 -40 -87 -16 -119 -49 -59 -61
59 -12 85 -7 112 22 21 21 27 38 27 70 l0 42 45 0 c43 0 45 -1 45 -28 0 -19
-12 -40 -40 -67 -22 -21 -40 -45 -40 -51 0 -17 52 -27 91 -19 l31 7 -4 81 -3
81 30 6 c86 19 149 74 196 173 34 73 39 168 10 206 l-18 24 -57 -26 -56 -26 0
35 c0 18 -2 34 -5 34 -3 0 -39 -18 -80 -40 -41 -22 -81 -40 -90 -40 -9 0 -34
9 -55 20 -33 17 -38 24 -31 38 5 9 12 24 15 33 2 9 18 23 35 30 17 8 31 17 31
21 0 3 -19 26 -42 50 -65 66 -156 85 -241 51z m74 -25 c44 -24 55 -50 45 -103
-8 -38 -48 -75 -105 -93 -40 -14 -49 -10 -67 34 -19 45 -18 70 7 120 17 36 40
55 78 63 2 1 21 -9 42 -21z m148 -208 c71 -36 158 -42 237 -16 19 6 27 -3 64
-75 28 -55 40 -88 36 -104 -9 -33 -74 -99 -126 -126 -42 -22 -56 -24 -200 -24
-150 0 -157 1 -212 28 -69 34 -97 70 -104 134 -5 42 -2 53 23 88 26 35 40 44
109 65 43 13 84 25 89 25 6 0 16 6 23 13 17 15 16 16 61 -8z"/>
<path d="M648 529 c-17 -12 -28 -30 -28 -44 0 -13 -5 -27 -11 -31 -6 -3 -7 -9
-3 -13 5 -3 17 -19 26 -36 46 -84 218 -139 218 -71 0 13 34 45 64 61 10 5 24
19 30 29 6 10 26 33 45 51 19 17 31 36 28 42 -4 6 -57 13 -119 17 -62 3 -138
9 -168 12 -46 4 -60 1 -82 -17z m60 -5 c-16 -8 -28 -19 -28 -25 0 -5 12 -1 27
8 23 15 47 18 157 16 71 -2 132 -5 135 -9 3 -3 -9 -19 -27 -35 -24 -21 -39
-28 -54 -23 -14 4 -18 2 -14 -5 4 -6 15 -11 24 -11 14 0 13 -3 -5 -22 -14 -13
-34 -21 -55 -21 -26 0 -29 -2 -16 -11 14 -8 8 -15 -38 -38 -52 -27 -56 -27
-84 -13 -16 8 -46 31 -65 51 -46 46 -49 102 -7 133 15 11 38 20 52 20 l25 0
-27 -15z"/>
</g>
</svg>
